<?xml version="1.0" standalone="no"?><!DOCTYPE svg PUBLIC "-//W3C//DTD SVG 1.1//EN" "http://www.w3.org/Graphics/SVG/1.1/DTD/svg11.dtd"><svg class="icon" width="200px" height="200.00px" viewBox="0 0 1024 1024" version="1.1" xmlns="http://www.w3.org/2000/svg"><path d="M762.2 232m-31.1 0a31.1 31.1 0 1 0 62.2 0 31.1 31.1 0 1 0-62.2 0Z" fill="#F2BC36" /><path d="M686.2 215.5c-8.6 0-15.6-7-15.6-15.6s7-15.6 15.6-15.6 15.6 7 15.6 15.6-7 15.6-15.6 15.6zM762.2 263.1c-17.2 0-31.1-14-31.1-31.1 0-17.2 14-31.1 31.1-31.1 17.2 0 31.1 14 31.1 31.1 0.1 17.1-13.9 31.1-31.1 31.1z m0-52.9c-12 0-21.8 9.8-21.8 21.8s9.8 21.8 21.8 21.8S784 244 784 232s-9.8-21.8-21.8-21.8z" fill="#471A1A" /><path d="M498.9 618.2L325 444.4c-5.7-5.7-5.7-15 0-20.7l173.9-173.9c5.7-5.7 15-5.7 20.7 0l173.9 173.9c5.7 5.7 5.7 15 0 20.7L519.6 618.2c-5.7 5.8-15 5.8-20.7 0z" fill="#FF2929" /><path d="M509.3 626.3c-6.2 0-12.3-2.3-17-7L324 451c-4.5-4.5-7-10.6-7-17s2.5-12.5 7-17l168.3-168.3c9.4-9.4 24.6-9.4 34 0L694.6 417c4.5 4.5 7 10.6 7 17s-2.5 12.5-7 17L526.3 619.3c-4.7 4.7-10.9 7-17 7z m-9.3-14.7c5.1 5.1 13.4 5.1 18.6 0l168.3-168.3c2.5-2.5 3.8-5.8 3.8-9.3s-1.4-6.8-3.8-9.3L518.6 256.4c-5.1-5.1-13.4-5.1-18.6 0L331.7 424.7c-2.5 2.5-3.8 5.8-3.8 9.3s1.4 6.8 3.8 9.3L500 611.6z" fill="#471A1A" /><path d="M508.7 519.1l-84.5-84.5c-0.3-0.3-0.3-0.8 0-1.1l84.5-84.5c0.3-0.3 0.8-0.3 1.1 0l84.5 84.5c0.3 0.3 0.3 0.8 0 1.1l-84.5 84.5c-0.3 0.3-0.8 0.3-1.1 0z" fill="#F2BC36" /><path d="M509.3 522.5c-3 0-5.9-1.1-8.1-3.4l-77-77c-2.2-2.2-3.4-5.1-3.4-8.1 0-3.1 1.2-6 3.4-8.1l77-77c4.5-4.5 11.8-4.5 16.3 0l77 77c2.2 2.2 3.4 5.1 3.4 8.1 0 3.1-1.2 6-3.4 8.1l-77 77c-2.3 2.3-5.3 3.4-8.2 3.4z m-0.5-11c0.2 0.2 0.7 0.2 0.9 0l77-77v-0.9l-77-77c-0.2-0.2-0.6-0.2-0.9 0l-77 77v0.9l77 77zM509.5 247.3l-4.1-4.1c-1.6-1.6-39.9-40.1-48-64.4-5-14.9-1.6-33.7 8.6-47.8 10-13.9 25.4-21.6 43.3-21.6s33.2 7.7 43.3 21.6c10.2 14.2 13.6 32.9 8.6 47.8-5.7 17.1-43.5 59.4-47.8 64.2l-3.9 4.3z m-0.2-127c-18.3 0-28.8 9.3-34.4 17.1-8.1 11.2-11 26.5-7.1 38 5.9 17.6 31.4 45.5 41.4 56 13.1-14.9 37.9-44.6 41.7-56 3.8-11.5 1-26.8-7.1-38-5.7-7.8-16.3-17.1-34.5-17.1z" fill="#471A1A" /><path d="M539.2 901.2c0 4.5-4 8.3-8.8 8.3h-43.2c-4.8 0-8.8-3.7-8.8-8.3V735.7c0-15.7 13.7-28.6 30.4-28.6s30.4 12.9 30.4 28.6v165.5z" fill="#F2BC36" /><path d="M512.7 699.3h-7.8c-17.1 0-31.1 14-31.1 31.1v170c0 4.9 4 9 9 9h52.1c4.9 0 9-4 9-9v-170c0-17.1-14-31.1-31.2-31.1z m22.6 193.9c0 4.2-3.4 7.6-7.6 7.6H490c-4.2 0-7.6-3.4-7.6-7.6V734.3c0-14.6 11.9-26.5 26.5-26.5s26.5 11.9 26.5 26.5v158.9h-0.1z" fill="#471A1A" /><path d="M509.5 663.5m-26.5 0a26.5 26.5 0 1 0 53 0 26.5 26.5 0 1 0-53 0Z" fill="#F2BC36" /><path d="M509.5 637c14.6 0 26.5 11.9 26.5 26.5S524.1 690 509.5 690 483 678.1 483 663.5s11.9-26.5 26.5-26.5m0-8.7c-19.4 0-35.2 15.8-35.2 35.2s15.8 35.2 35.2 35.2 35.2-15.8 35.2-35.2-15.8-35.2-35.2-35.2z" fill="#471A1A" /></svg>